<svg width="51" height="51" viewBox="0 0 51 51" fill="none" xmlns="http://www.w3.org/2000/svg">
    <path fill-rule="evenodd" clip-rule="evenodd"
        d="M36.882 5.44527C34.5026 5.18747 31.5034 5.18748 27.6773 5.1875H23.3221C19.496 5.18748 16.4968 5.18747 14.1173 5.44527C11.6891 5.70835 9.72167 6.25484 8.04183 7.47532C7.02486 8.21419 6.13053 9.10852 5.39166 10.1255C5.06955 10.5688 4.79159 11.0361 4.55254 11.5322C3.78124 13.1329 3.43747 14.9897 3.27001 17.2063C3.10383 19.406 3.10383 22.1057 3.10384 25.4395V25.5C3.10384 26.3629 3.8034 27.0625 4.66634 27.0625C5.52929 27.0625 6.22884 26.3629 6.22884 25.5C6.22884 22.0934 6.22986 19.5103 6.38613 17.4418C6.45272 16.5602 6.54614 15.7992 6.672 15.132L9.74798 18.208C13.1485 21.6086 15.8135 24.2736 18.1723 26.0733C20.5868 27.9155 22.8633 28.9978 25.4997 28.9978C28.136 28.9978 30.4126 27.9155 32.827 26.0733C35.1858 24.2736 37.8508 21.6087 41.2513 18.2081L44.3274 15.132C44.4532 15.7992 44.5466 16.5602 44.6132 17.4418C44.7695 19.5103 44.7705 22.0934 44.7705 25.5C44.7705 29.4408 44.7684 32.2708 44.5309 34.4624C44.2966 36.6247 43.8484 37.9793 43.0795 39.0377C42.5334 39.7894 41.8724 40.4504 41.1207 40.9965C40.0623 41.7654 38.7077 42.2136 36.5454 42.4479C34.3539 42.6854 31.5238 42.6875 27.583 42.6875H23.4163C22.5534 42.6875 21.8538 43.3871 21.8538 44.25C21.8538 45.1129 22.5534 45.8125 23.4163 45.8125H27.6773C31.5033 45.8125 34.5026 45.8125 36.882 45.5547C39.3102 45.2917 41.2777 44.7452 42.9575 43.5247C43.9745 42.7858 44.8688 41.8915 45.6077 40.8745C46.8282 39.1947 47.3747 37.2272 47.6377 34.799C47.8955 32.4196 47.8955 29.4205 47.8955 25.5945V25.4396C47.8955 22.1058 47.8955 19.406 47.7293 17.2063C47.5619 14.9897 47.2181 13.1329 46.4468 11.5322C46.2078 11.0361 45.9298 10.5688 45.6077 10.1255C44.8688 9.10852 43.9745 8.21419 42.9575 7.47532C41.2777 6.25484 39.3102 5.70835 36.882 5.44527ZM11.8731 15.9138L7.92062 11.9612C8.46659 11.21 9.12735 10.5494 9.87866 10.0035C10.937 9.23457 12.2916 8.78636 14.4539 8.55209C16.6455 8.31465 19.4756 8.3125 23.4163 8.3125H27.583C31.5238 8.3125 34.3539 8.31465 36.5454 8.55209C38.7077 8.78636 40.0623 9.23457 41.1207 10.0035C41.872 10.5494 42.5328 11.21 43.0787 11.9612L39.1262 15.9138C35.6228 19.4172 33.104 21.9313 30.9314 23.5889C28.795 25.219 27.178 25.8728 25.4997 25.8728C23.8213 25.8728 22.2044 25.219 20.0679 23.5889C17.8954 21.9313 15.3766 19.4172 11.8731 15.9138Z"
        fill="#2E2E2E" />
    <path
        d="M2.58301 32.2708C1.72006 32.2708 1.02051 32.9704 1.02051 33.8333C1.02051 34.6963 1.72006 35.3958 2.58301 35.3958H8.83301C9.69595 35.3958 10.3955 34.6963 10.3955 33.8333C10.3955 32.9704 9.69595 32.2708 8.83301 32.2708H2.58301Z"
        fill="#2E2E2E" />
    <path
        d="M2.58301 38.5208C1.72006 38.5208 1.02051 39.2204 1.02051 40.0833C1.02051 40.9463 1.72006 41.6458 2.58301 41.6458H15.083C15.946 41.6458 16.6455 40.9463 16.6455 40.0833C16.6455 39.2204 15.946 38.5208 15.083 38.5208H2.58301Z"
        fill="#2E2E2E" />
</svg>