<svg width="51" height="51" viewBox="0 0 51 51" fill="none" xmlns="http://www.w3.org/2000/svg">
    <path
        d="M22.1602 8.61362C24.3684 8.21213 26.6309 8.21213 28.8392 8.61362C38.7618 10.4177 45.4576 19.7765 43.9616 29.7502L43.9445 29.8638C40.9223 30.0224 38.5205 32.5232 38.5205 35.585V39.7517C38.5205 42.9158 41.0855 45.4808 44.2497 45.4808C47.4138 45.4808 49.9788 42.9158 49.9788 39.7517V35.585C49.9788 33.4164 48.775 31.5316 47.0003 30.5586L47.052 30.2138C48.7985 18.5705 40.9818 7.64514 29.3982 5.53903C26.8203 5.07032 24.179 5.07032 21.6011 5.53903C10.0176 7.64514 2.20086 18.5705 3.94735 30.2138L3.99907 30.5586C2.22437 31.5316 1.02051 33.4164 1.02051 35.585V39.7517C1.02051 42.9158 3.58554 45.4808 6.74967 45.4808C9.91381 45.4808 12.4788 42.9158 12.4788 39.7517V35.585C12.4788 32.5232 10.0771 30.0224 7.05481 29.8638L7.03777 29.7502C5.54172 19.7765 12.2376 10.4177 22.1602 8.61362Z"
        fill="#2E2E2E" />
</svg>