<svg width="51" height="51" viewBox="0 0 51 51" fill="none" xmlns="http://www.w3.org/2000/svg">
    <path fill-rule="evenodd" clip-rule="evenodd"
        d="M25.4997 13.5205C21.185 13.5205 17.6872 17.0183 17.6872 21.333C17.6872 25.6477 21.185 29.1455 25.4997 29.1455C29.8144 29.1455 33.3122 25.6477 33.3122 21.333C33.3122 17.0183 29.8144 13.5205 25.4997 13.5205ZM20.8122 21.333C20.8122 18.7442 22.9108 16.6455 25.4997 16.6455C28.0885 16.6455 30.1872 18.7442 30.1872 21.333C30.1872 23.9218 28.0885 26.0205 25.4997 26.0205C22.9108 26.0205 20.8122 23.9218 20.8122 21.333Z"
        fill="#2E2E2E" />
    <path fill-rule="evenodd" clip-rule="evenodd"
        d="M25.4997 1.02051C15.3261 1.02051 7.27051 9.85962 7.27051 20.5178C7.27051 23.936 8.96864 27.961 11.1052 31.7383C13.2763 35.5767 16.0473 39.4085 18.4768 42.5065L18.5579 42.6099C19.7437 44.1223 20.7539 45.4106 21.7335 46.3005C22.8023 47.2713 23.9808 47.9069 25.4997 47.9069C27.0185 47.9069 28.1971 47.2713 29.2658 46.3005C30.2454 45.4106 31.2557 44.1222 32.4415 42.6099L32.5225 42.5065C34.952 39.4085 37.7231 35.5767 39.8942 31.7383C42.0307 27.961 43.7288 23.936 43.7288 20.5178C43.7288 9.85962 35.6733 1.02051 25.4997 1.02051ZM10.3955 20.5178C10.3955 11.3657 17.2638 4.14551 25.4997 4.14551C33.7355 4.14551 40.6038 11.3657 40.6038 20.5178C40.6038 23.073 39.2713 26.4921 37.1742 30.1997C35.1116 33.8462 32.446 37.54 30.0635 40.5782C28.774 42.2225 27.9249 43.2967 27.1646 43.9873C26.4712 44.6172 26.0084 44.7819 25.4997 44.7819C24.991 44.7819 24.5281 44.6172 23.8347 43.9873C23.0744 43.2967 22.2254 42.2225 20.9359 40.5782C18.5534 37.54 15.8878 33.8462 13.8252 30.1997C11.7281 26.4921 10.3955 23.073 10.3955 20.5178Z"
        fill="#2E2E2E" />
</svg>