<svg width="137" height="75" viewBox="0 0 137 75" fill="none" xmlns="http://www.w3.org/2000/svg">
    <path d="M12.0166 58.0108L16.989 19.0605L30.663 58.0108L43.9227 19.8893L49.3094 58.8396" stroke="#043187"
        stroke-width="11.1878" />
    <path
        d="M14.9174 26.3123C18.9222 26.3123 22.1688 23.0658 22.1688 19.061C22.1688 15.0561 18.9222 11.8096 14.9174 11.8096C10.9126 11.8096 7.66602 15.0561 7.66602 19.061C7.66602 23.0658 10.9126 26.3123 14.9174 26.3123Z"
        fill="#F3A953" stroke="#064ACB" stroke-width="1.24309" />
    <path
        d="M12.2337 21.1987C11.8444 21.1987 11.4968 21.1383 11.1907 21.0174C10.8862 20.8965 10.6461 20.7325 10.4703 20.5253C10.2961 20.3182 10.209 20.0843 10.209 19.8237C10.209 19.6244 10.2584 19.4424 10.3573 19.2775C10.4577 19.1127 10.5927 18.9762 10.7622 18.8679C10.9318 18.758 11.1209 18.6874 11.3296 18.656V18.6183C11.055 18.5712 10.829 18.4496 10.6516 18.2534C10.4758 18.0556 10.3879 17.8226 10.3879 17.5541C10.3879 17.3015 10.468 17.077 10.628 16.8808C10.7881 16.6831 11.0071 16.5277 11.2849 16.4146C11.5627 16.3016 11.879 16.2451 12.2337 16.2451C12.5884 16.2451 12.9047 16.3024 13.1825 16.417C13.4603 16.53 13.6793 16.6854 13.8394 16.8832C13.9995 17.0794 14.0795 17.303 14.0795 17.5541C14.0795 17.8241 13.9901 18.0572 13.8111 18.2534C13.6322 18.4496 13.4078 18.5712 13.1378 18.6183V18.656C13.3449 18.6874 13.5333 18.758 13.7028 18.8679C13.8723 18.9762 14.0073 19.1127 14.1078 19.2775C14.2082 19.4424 14.2584 19.6244 14.2584 19.8237C14.2584 20.0843 14.1706 20.3182 13.9947 20.5253C13.8205 20.7325 13.5804 20.8965 13.2743 21.0174C12.9698 21.1383 12.6229 21.1987 12.2337 21.1987ZM12.2337 20.2946C12.3577 20.2946 12.4676 20.2695 12.5633 20.2193C12.659 20.169 12.7344 20.1 12.7893 20.0121C12.8458 19.9226 12.8741 19.8222 12.8741 19.7107C12.8741 19.5993 12.8458 19.5004 12.7893 19.4141C12.7344 19.3277 12.659 19.2603 12.5633 19.2116C12.4676 19.1614 12.3577 19.1363 12.2337 19.1363C12.1113 19.1363 12.0014 19.1614 11.9041 19.2116C11.8083 19.2603 11.7322 19.3277 11.6757 19.4141C11.6208 19.5004 11.5933 19.5993 11.5933 19.7107C11.5933 19.8222 11.6208 19.9219 11.6757 20.0097C11.7322 20.0976 11.8083 20.1675 11.9041 20.2193C12.0014 20.2695 12.1113 20.2946 12.2337 20.2946ZM12.2337 18.2322C12.3436 18.2322 12.4409 18.2095 12.5257 18.1639C12.6104 18.1184 12.6771 18.0556 12.7258 17.9756C12.7744 17.8955 12.7988 17.8053 12.7988 17.7048C12.7988 17.6044 12.7744 17.5157 12.7258 17.4388C12.6771 17.3603 12.6104 17.2991 12.5257 17.2551C12.4409 17.2096 12.3436 17.1869 12.2337 17.1869C12.1254 17.1869 12.0281 17.2096 11.9418 17.2551C11.857 17.2991 11.7903 17.3603 11.7416 17.4388C11.693 17.5157 11.6687 17.6044 11.6687 17.7048C11.6687 17.8053 11.693 17.8955 11.7416 17.9756C11.7903 18.0541 11.857 18.1168 11.9418 18.1639C12.0281 18.2095 12.1254 18.2322 12.2337 18.2322ZM14.7958 20.3794V19.3623L16.7358 16.311H17.6587V17.6672H17.1313L16.086 19.3246V19.3623H18.9489V20.3794H14.7958ZM17.1408 21.1328V20.0686L17.169 19.626V16.311H18.3933V21.1328H17.1408Z"
        fill="white" />
    <path
        d="M69.6959 50.7598C66.9334 50.7598 64.5164 50.2489 62.4446 49.2267C60.4005 48.2044 58.8118 46.8097 57.6794 45.0416C56.5469 43.2461 55.9805 41.2294 55.9805 38.9918C55.9805 36.699 56.5328 34.6687 57.6379 32.9007C58.7704 31.1327 60.3035 29.7515 62.2374 28.757C64.1986 27.7626 66.3947 27.2653 68.8258 27.2653C71.0633 27.2653 73.1215 27.7073 74.9998 28.5913C76.9059 29.4753 78.4254 30.7874 79.5578 32.5278C80.718 34.2681 81.2981 36.4228 81.2981 38.9918C81.2981 39.3233 81.2845 39.6963 81.2567 40.1106C81.229 40.4974 81.2016 40.8565 81.1738 41.188H63.7291V36.6714H76.2015L72.6794 37.8731C72.6794 36.9891 72.5136 36.2432 72.1821 35.6355C71.8784 35.0001 71.4499 34.5167 70.8976 34.1852C70.3452 33.8261 69.6823 33.6465 68.9086 33.6465C68.135 33.6465 67.4584 33.8261 66.8783 34.1852C66.3259 34.5167 65.8975 35.0001 65.5937 35.6355C65.29 36.2432 65.1379 36.9891 65.1379 37.8731V39.2819C65.1379 40.2487 65.3314 41.0775 65.718 41.7681C66.1046 42.4588 66.6574 42.9834 67.3755 43.3427C68.0936 43.6742 68.9638 43.8399 69.986 43.8399C71.0356 43.8399 71.8921 43.7019 72.5551 43.4256C73.2458 43.1492 73.9639 42.7348 74.7098 42.1825L79.5993 47.1134C78.4941 48.3014 77.1267 49.213 75.497 49.8482C73.8947 50.4561 71.9613 50.7598 69.6959 50.7598ZM95.1926 50.7598C92.0712 50.7598 89.6401 50.0139 87.8998 48.5222C86.1595 47.0028 85.2893 44.6823 85.2893 41.5609V22.583H94.654V41.478C94.654 42.1688 94.8334 42.7075 95.1926 43.0941C95.5792 43.4807 96.0491 43.6742 96.6015 43.6742C97.4024 43.6742 98.1068 43.467 98.7147 43.0526L100.952 49.5581C100.234 49.9725 99.364 50.2762 98.3418 50.4697C97.3473 50.6633 96.2977 50.7598 95.1926 50.7598ZM82.1816 35.7598V28.9228H99.2948V35.7598H82.1816ZM117.028 50.3454V46.3261L116.365 45.2488V37.6244C116.365 36.5195 116.02 35.6769 115.329 35.0968C114.666 34.5167 113.575 34.2267 112.056 34.2267C111.033 34.2267 109.997 34.3924 108.948 34.7239C107.898 35.0277 107 35.456 106.255 36.0084L103.271 29.8344C104.597 29.0057 106.185 28.3703 108.036 27.9283C109.887 27.4863 111.696 27.2653 113.464 27.2653C117.359 27.2653 120.371 28.1355 122.498 29.8758C124.652 31.6162 125.73 34.3786 125.73 38.1631V50.3454H117.028ZM110.605 50.7598C108.754 50.7598 107.208 50.442 105.964 49.8068C104.721 49.1715 103.782 48.3287 103.147 47.2791C102.512 46.2018 102.194 45.0138 102.194 43.7156C102.194 42.2517 102.567 41.0084 103.313 39.9863C104.058 38.9642 105.191 38.1908 106.71 37.6659C108.257 37.141 110.205 36.8786 112.553 36.8786H117.277V41.3952H114.045C113.05 41.3952 112.318 41.5609 111.848 41.8924C111.406 42.1961 111.185 42.666 111.185 43.3012C111.185 43.8262 111.379 44.268 111.766 44.6272C112.18 44.9587 112.732 45.1244 113.423 45.1244C114.058 45.1244 114.638 44.9587 115.163 44.6272C115.716 44.268 116.116 43.7156 116.365 42.9697L117.567 45.746C117.207 47.4312 116.448 48.688 115.288 49.5167C114.127 50.3454 112.567 50.7598 110.605 50.7598Z"
        fill="#043187" />
</svg>