<svg width="30" height="30" viewBox="0 0 30 30" fill="none" xmlns="http://www.w3.org/2000/svg">
    <path
        d="M25 25H5C4.33696 25 3.70107 24.7366 3.23223 24.2678C2.76339 23.7989 2.5 23.163 2.5 22.5V7.39125C2.52804 6.74724 2.80376 6.13895 3.2696 5.69338C3.73543 5.2478 4.35538 4.99939 5 5H25C25.663 5 26.2989 5.26339 26.7678 5.73223C27.2366 6.20107 27.5 6.83696 27.5 7.5V22.5C27.5 23.163 27.2366 23.7989 26.7678 24.2678C26.2989 24.7366 25.663 25 25 25ZM5 9.835V22.5H25V9.835L15 16.5L5 9.835ZM6 7.5L15 13.5L24 7.5H6Z"
        fill="#FAFAFA" />
</svg>