<svg width="30" height="30" viewBox="0 0 30 30" fill="none" xmlns="http://www.w3.org/2000/svg">
    <path
        d="M29.5534 6.17147C28.5096 6.63397 27.3884 6.94647 26.2096 7.08772C27.4259 6.35996 28.3358 5.21455 28.7696 3.86522C27.627 4.54396 26.3763 5.02171 25.0721 5.27772C24.1951 4.3413 23.0335 3.72063 21.7676 3.51206C20.5016 3.3035 19.2023 3.51871 18.0712 4.12428C16.9401 4.72986 16.0406 5.69192 15.5123 6.8611C14.9841 8.03028 14.8566 9.34116 15.1496 10.5902C12.8343 10.474 10.5692 9.87215 8.50143 8.82385C6.43367 7.77554 4.60945 6.30417 3.14715 4.50522C2.64715 5.36772 2.35965 6.36772 2.35965 7.43272C2.35909 8.39146 2.59519 9.33552 3.047 10.1811C3.4988 11.0267 4.15235 11.7478 4.94965 12.2802C4.02499 12.2508 3.12074 12.0009 2.31215 11.5515V11.6265C2.31206 12.9711 2.77719 14.2744 3.62863 15.3152C4.48006 16.356 5.66536 17.0701 6.9834 17.3365C6.12563 17.5686 5.22632 17.6028 4.3534 17.4365C4.72527 18.5935 5.44964 19.6053 6.42511 20.3301C7.40057 21.055 8.57829 21.4567 9.7934 21.479C7.73069 23.0982 5.18326 23.9766 2.5609 23.9727C2.09637 23.9728 1.63224 23.9457 1.1709 23.8915C3.83274 25.6029 6.93132 26.5112 10.0959 26.5077C20.8084 26.5077 26.6646 17.6352 26.6646 9.94022C26.6646 9.69022 26.6584 9.43772 26.6471 9.18772C27.7863 8.36394 28.7695 7.34384 29.5509 6.17522L29.5534 6.17147Z"
        fill="#FAFAFA" />
</svg>