<svg width="29" height="24" viewBox="0 0 29 24" fill="none" xmlns="http://www.w3.org/2000/svg">
<path d="M28.5534 3.17122C27.5096 3.63372 26.3884 3.94622 25.2096 4.08747C26.4259 3.35971 27.3358 2.21431 27.7696 0.864974C26.627 1.54371 25.3763 2.02147 24.0721 2.27747C23.1951 1.34106 22.0335 0.720382 20.7676 0.511817C19.5016 0.303251 18.2023 0.518464 17.0712 1.12404C15.9401 1.72962 15.0406 2.69168 14.5123 3.86085C13.9841 5.03003 13.8566 6.34091 14.1496 7.58997C11.8343 7.47372 9.56918 6.87191 7.50143 5.82361C5.43367 4.7753 3.60945 3.30393 2.14715 1.50497C1.64715 2.36747 1.35965 3.36747 1.35965 4.43247C1.35909 5.39122 1.59519 6.33528 2.047 7.18089C2.4988 8.0265 3.15235 8.74752 3.94965 9.27997C3.02499 9.25055 2.12074 9.0007 1.31215 8.55122V8.62622C1.31206 9.9709 1.77719 11.2742 2.62863 12.315C3.48006 13.3557 4.66536 14.0699 5.9834 14.3362C5.12563 14.5684 4.22632 14.6026 3.3534 14.4362C3.72527 15.5932 4.44964 16.605 5.42511 17.3299C6.40057 18.0548 7.57829 18.4564 8.7934 18.4787C6.73069 20.098 4.18326 20.9763 1.5609 20.9725C1.09637 20.9726 0.632244 20.9455 0.170898 20.8912C2.83274 22.6027 5.93132 23.511 9.0959 23.5075C19.8084 23.5075 25.6646 14.635 25.6646 6.93997C25.6646 6.68997 25.6584 6.43747 25.6471 6.18747C26.7863 5.36369 27.7695 4.34359 28.5509 3.17497L28.5534 3.17122Z" fill="#FAFAFA"/>
</svg>
