<svg width="28" height="28" viewBox="0 0 28 28" fill="none" xmlns="http://www.w3.org/2000/svg">
<path fill-rule="evenodd" clip-rule="evenodd" d="M8.33125 0.3325C9.7975 0.265 10.265 0.25 14 0.25C17.735 0.25 18.2025 0.26625 19.6675 0.3325C21.1325 0.39875 22.1325 0.6325 23.0075 0.97125C23.9237 1.3175 24.755 1.85875 25.4425 2.55875C26.1425 3.245 26.6825 4.075 27.0275 4.9925C27.3675 5.8675 27.6 6.8675 27.6675 8.33C27.735 9.79875 27.75 10.2662 27.75 14C27.75 17.735 27.7337 18.2025 27.6675 19.6688C27.6012 21.1313 27.3675 22.1313 27.0275 23.0063C26.6825 23.9239 26.1416 24.7552 25.4425 25.4425C24.755 26.1425 23.9237 26.6825 23.0075 27.0275C22.1325 27.3675 21.1325 27.6 19.67 27.6675C18.2025 27.735 17.735 27.75 14 27.75C10.265 27.75 9.7975 27.7337 8.33125 27.6675C6.86875 27.6012 5.86875 27.3675 4.99375 27.0275C4.07615 26.6825 3.24478 26.1416 2.5575 25.4425C1.85797 24.7558 1.31664 23.9249 0.97125 23.0075C0.6325 22.1325 0.4 21.1325 0.3325 19.67C0.265 18.2013 0.25 17.7337 0.25 14C0.25 10.265 0.26625 9.7975 0.3325 8.3325C0.39875 6.8675 0.6325 5.8675 0.97125 4.9925C1.31715 4.0751 1.8589 3.24414 2.55875 2.5575C3.24505 1.85813 4.07559 1.3168 4.9925 0.97125C5.8675 0.6325 6.8675 0.4 8.33 0.3325H8.33125ZM19.5562 2.8075C18.1062 2.74125 17.6712 2.7275 14 2.7275C10.3287 2.7275 9.89375 2.74125 8.44375 2.8075C7.1025 2.86875 6.375 3.0925 5.89 3.28125C5.24875 3.53125 4.79 3.8275 4.30875 4.30875C3.85256 4.75256 3.50148 5.29285 3.28125 5.89C3.0925 6.375 2.86875 7.1025 2.8075 8.44375C2.74125 9.89375 2.7275 10.3287 2.7275 14C2.7275 17.6712 2.74125 18.1062 2.8075 19.5562C2.86875 20.8975 3.0925 21.625 3.28125 22.11C3.50125 22.7063 3.8525 23.2475 4.30875 23.6912C4.7525 24.1475 5.29375 24.4988 5.89 24.7188C6.375 24.9075 7.1025 25.1313 8.44375 25.1925C9.89375 25.2588 10.3275 25.2725 14 25.2725C17.6725 25.2725 18.1062 25.2588 19.5562 25.1925C20.8975 25.1313 21.625 24.9075 22.11 24.7188C22.7513 24.4688 23.21 24.1725 23.6912 23.6912C24.1475 23.2475 24.4988 22.7063 24.7188 22.11C24.9075 21.625 25.1313 20.8975 25.1925 19.5562C25.2588 18.1062 25.2725 17.6712 25.2725 14C25.2725 10.3287 25.2588 9.89375 25.1925 8.44375C25.1313 7.1025 24.9075 6.375 24.7188 5.89C24.4688 5.24875 24.1725 4.79 23.6912 4.30875C23.2474 3.85259 22.7071 3.50151 22.11 3.28125C21.625 3.0925 20.8975 2.86875 19.5562 2.8075ZM12.2438 18.2388C13.2246 18.647 14.3167 18.7021 15.3337 18.3947C16.3506 18.0872 17.2292 17.4361 17.8195 16.5528C18.4098 15.6695 18.6751 14.6086 18.5701 13.5514C18.465 12.4942 17.9963 11.5062 17.2437 10.7562C16.764 10.2768 16.184 9.90977 15.5454 9.68143C14.9068 9.4531 14.2255 9.3692 13.5506 9.43577C12.8757 9.50234 12.2239 9.71772 11.6423 10.0664C11.0606 10.4151 10.5634 10.8884 10.1866 11.4523C9.80983 12.0162 9.56274 12.6566 9.46314 13.3275C9.36355 13.9983 9.41394 14.6829 9.61067 15.3319C9.80741 15.9809 10.1456 16.5783 10.6009 17.0809C11.0562 17.5835 11.6173 17.979 12.2438 18.2388ZM9.0025 9.0025C9.65878 8.34622 10.4379 7.82563 11.2954 7.47045C12.1528 7.11527 13.0719 6.93247 14 6.93247C14.9281 6.93247 15.8472 7.11527 16.7046 7.47045C17.5621 7.82563 18.3412 8.34622 18.9975 9.0025C19.6538 9.65878 20.1744 10.4379 20.5295 11.2954C20.8847 12.1528 21.0675 13.0719 21.0675 14C21.0675 14.9281 20.8847 15.8472 20.5295 16.7046C20.1744 17.5621 19.6538 18.3412 18.9975 18.9975C17.6721 20.3229 15.8744 21.0675 14 21.0675C12.1256 21.0675 10.3279 20.3229 9.0025 18.9975C7.67708 17.6721 6.93247 15.8744 6.93247 14C6.93247 12.1256 7.67708 10.3279 9.0025 9.0025ZM22.635 7.985C22.7976 7.83159 22.9278 7.6471 23.0179 7.44247C23.1079 7.23783 23.156 7.01721 23.1593 6.79366C23.1625 6.57011 23.1209 6.34818 23.0369 6.14101C22.9528 5.93384 22.828 5.74564 22.67 5.58755C22.5119 5.42946 22.3237 5.3047 22.1165 5.22065C21.9093 5.1366 21.6874 5.09497 21.4638 5.09823C21.2403 5.10149 21.0197 5.14957 20.815 5.23962C20.6104 5.32967 20.4259 5.45987 20.2725 5.6225C19.9741 5.93879 19.8108 6.3589 19.8171 6.79366C19.8235 7.22842 19.999 7.6436 20.3064 7.95105C20.6139 8.25851 21.0291 8.43404 21.4638 8.44037C21.8986 8.44671 22.3187 8.28336 22.635 7.985Z" fill="#FAFAFA"/>
</svg>
