<svg width="26" height="20" viewBox="0 0 26 20" fill="none" xmlns="http://www.w3.org/2000/svg">
<path d="M23 20H3C2.33696 20 1.70107 19.7366 1.23223 19.2678C0.763392 18.7989 0.5 18.163 0.5 17.5V2.39125C0.528041 1.74724 0.803761 1.13895 1.2696 0.693376C1.73543 0.247804 2.35538 -0.000609048 3 1.1214e-06H23C23.663 1.1214e-06 24.2989 0.263393 24.7678 0.732234C25.2366 1.20107 25.5 1.83696 25.5 2.5V17.5C25.5 18.163 25.2366 18.7989 24.7678 19.2678C24.2989 19.7366 23.663 20 23 20ZM3 4.835V17.5H23V4.835L13 11.5L3 4.835ZM4 2.5L13 8.5L22 2.5H4Z" fill="#FAFAFA"/>
</svg>
